<?xml version="1.0" encoding="UTF-8" standalone="no"?>
<svg
   xmlns:dc="http://purl.org/dc/elements/1.1/"
   xmlns:cc="http://creativecommons.org/ns#"
   xmlns:rdf="http://www.w3.org/1999/02/22-rdf-syntax-ns#"
   xmlns:svg="http://www.w3.org/2000/svg"
   xmlns="http://www.w3.org/2000/svg"
   xmlns:sodipodi="http://sodipodi.sourceforge.net/DTD/sodipodi-0.dtd"
   xmlns:inkscape="http://www.inkscape.org/namespaces/inkscape"
   height="67px"
   id="Layer_1"
   style="enable-background:new 0 0 67 67;"
   version="1.1"
   viewBox="0 0 67 67"
   width="67px"
   xml:space="preserve"
   inkscape:version="0.91 r13725"
   sodipodi:docname="social-1_logo-linkedin.svg"><metadata
     id="metadata9"><rdf:RDF><cc:Work
         rdf:about=""><dc:format>image/svg+xml</dc:format><dc:type
           rdf:resource="http://purl.org/dc/dcmitype/StillImage" /><dc:title /></cc:Work></rdf:RDF></metadata><defs
     id="defs7" /><sodipodi:namedview
     pagecolor="#ffffff"
     bordercolor="#666666"
     borderopacity="1"
     objecttolerance="10"
     gridtolerance="10"
     guidetolerance="10"
     inkscape:pageopacity="0"
     inkscape:pageshadow="2"
     inkscape:window-width="1366"
     inkscape:window-height="705"
     id="namedview5"
     showgrid="false"
     inkscape:zoom="3.5223881"
     inkscape:cx="-8.3749996"
     inkscape:cy="33.5"
     inkscape:window-x="-8"
     inkscape:window-y="-8"
     inkscape:window-maximized="1"
     inkscape:current-layer="Layer_1" /><path
     d="m 27.979733,27.717699 0,-6.246399 c 0,-3.346667 -1.786667,-4.904001 -4.168532,-4.904001 -1.922133,0 -2.783468,1.0576 -3.263468,1.799467 l 0,-1.543466 -3.621334,0 c 0.048,1.022399 0,10.894399 0,10.894399 l 3.621334,0 0,-6.084266 c 0,-0.3248 0.02347,-0.650134 0.119467,-0.882667 0.261334,-0.650666 0.857066,-1.324267 1.857067,-1.324267 1.310933,0 1.834666,0.998934 1.834666,2.462934 l 0,5.8288 3.6208,0 z M 13.111467,15.336366 c 1.2624,0 2.049067,-0.837334 2.049067,-1.8832 -0.02347,-1.068266 -0.786667,-1.8816 -2.025067,-1.8816 -1.2384,0 -2.048534,0.8128 -2.048534,1.8816 0,1.045866 0.786134,1.8832 2.0016,1.8832 l 0.02293,0 z M 19,36.177966 c -8.836267,0 -16,-7.163733 -16,-16 0,-8.836801 7.163733,-16 16,-16 8.836267,0 16,7.163199 16,16 0,8.836267 -7.163733,16 -16,16 z m -4.077866,-8.460267 0,-10.894399 -3.6208,0 0,10.894399 3.6208,0 z"
     style="clip-rule:evenodd;fill:#444444;fill-rule:evenodd;fill-opacity:1"
     id="path3"
     inkscape:connector-curvature="0" /></svg>